<mxfile host="app.diagrams.net" agent="Mozilla/5.0 (Macintosh; Intel Mac OS X 10.15; rv:139.0) Gecko/20100101 Firefox/139.0" version="27.1.0">
  <diagram name="Page-1" id="vE6Pk_aVm6t82n-wlcTE">
    <mxGraphModel dx="1018" dy="609" grid="1" gridSize="10" guides="1" tooltips="1" connect="1" arrows="1" fold="1" page="1" pageScale="1" pageWidth="827" pageHeight="1169" math="0" shadow="0">
      <root>
        <mxCell id="0" />
        <mxCell id="1" parent="0" />
        <mxCell id="9Uc9kh_EMYb7eTTgJk2r-1" value="media" style="rounded=0;whiteSpace=wrap;html=1;" parent="1" vertex="1">
          <mxGeometry x="360" y="390" width="120" height="60" as="geometry" />
        </mxCell>
        <mxCell id="9Uc9kh_EMYb7eTTgJk2r-2" value="film" style="rounded=0;whiteSpace=wrap;html=1;" parent="1" vertex="1">
          <mxGeometry x="200" y="680" width="120" height="60" as="geometry" />
        </mxCell>
        <mxCell id="9Uc9kh_EMYb7eTTgJk2r-3" value="episodio" style="rounded=0;whiteSpace=wrap;html=1;" parent="1" vertex="1">
          <mxGeometry x="520" y="680" width="120" height="60" as="geometry" />
        </mxCell>
        <mxCell id="9Uc9kh_EMYb7eTTgJk2r-4" value="membro" style="rounded=0;whiteSpace=wrap;html=1;" parent="1" vertex="1">
          <mxGeometry x="360" y="90" width="120" height="60" as="geometry" />
        </mxCell>
        <mxCell id="9Uc9kh_EMYb7eTTgJk2r-5" value="licenza" style="rounded=0;whiteSpace=wrap;html=1;" parent="1" vertex="1">
          <mxGeometry x="680" y="502" width="120" height="58" as="geometry" />
        </mxCell>
        <mxCell id="9Uc9kh_EMYb7eTTgJk2r-142" style="edgeStyle=orthogonalEdgeStyle;rounded=0;orthogonalLoop=1;jettySize=auto;html=1;entryX=1;entryY=0.75;entryDx=0;entryDy=0;endArrow=none;startFill=0;" parent="1" source="9Uc9kh_EMYb7eTTgJk2r-7" target="9Uc9kh_EMYb7eTTgJk2r-1" edge="1">
          <mxGeometry relative="1" as="geometry">
            <Array as="points">
              <mxPoint x="540" y="530" />
              <mxPoint x="540" y="435" />
            </Array>
          </mxGeometry>
        </mxCell>
        <mxCell id="9Uc9kh_EMYb7eTTgJk2r-7" value="licensing" style="rhombus;whiteSpace=wrap;html=1;" parent="1" vertex="1">
          <mxGeometry x="560" y="490" width="80" height="80" as="geometry" />
        </mxCell>
        <mxCell id="9Uc9kh_EMYb7eTTgJk2r-8" value="casting" style="rhombus;whiteSpace=wrap;html=1;" parent="1" vertex="1">
          <mxGeometry x="380" y="230" width="80" height="80" as="geometry" />
        </mxCell>
        <mxCell id="9Uc9kh_EMYb7eTTgJk2r-10" value="appartenenza" style="rhombus;whiteSpace=wrap;html=1;fontSize=10;" parent="1" vertex="1">
          <mxGeometry x="540" y="800" width="80" height="80" as="geometry" />
        </mxCell>
        <mxCell id="9Uc9kh_EMYb7eTTgJk2r-11" value="serie_tv" style="rounded=0;whiteSpace=wrap;html=1;" parent="1" vertex="1">
          <mxGeometry x="520" y="940" width="120" height="60" as="geometry" />
        </mxCell>
        <mxCell id="9Uc9kh_EMYb7eTTgJk2r-12" value="saga" style="rounded=0;whiteSpace=wrap;html=1;" parent="1" vertex="1">
          <mxGeometry x="200" y="940" width="120" height="60" as="geometry" />
        </mxCell>
        <mxCell id="9Uc9kh_EMYb7eTTgJk2r-17" value="" style="endArrow=none;html=1;rounded=0;entryX=0.5;entryY=1;entryDx=0;entryDy=0;" parent="1" target="9Uc9kh_EMYb7eTTgJk2r-8" edge="1">
          <mxGeometry width="50" height="50" relative="1" as="geometry">
            <mxPoint x="420" y="390" as="sourcePoint" />
            <mxPoint x="470" y="340" as="targetPoint" />
          </mxGeometry>
        </mxCell>
        <mxCell id="9Uc9kh_EMYb7eTTgJk2r-18" value="" style="endArrow=none;html=1;rounded=0;entryX=0.5;entryY=1;entryDx=0;entryDy=0;" parent="1" edge="1">
          <mxGeometry width="50" height="50" relative="1" as="geometry">
            <mxPoint x="419.47" y="230" as="sourcePoint" />
            <mxPoint x="419.47" y="150" as="targetPoint" />
          </mxGeometry>
        </mxCell>
        <mxCell id="9Uc9kh_EMYb7eTTgJk2r-20" value="" style="endArrow=none;html=1;rounded=0;entryX=0;entryY=0.481;entryDx=0;entryDy=0;entryPerimeter=0;exitX=1;exitY=0.5;exitDx=0;exitDy=0;" parent="1" source="9Uc9kh_EMYb7eTTgJk2r-7" target="9Uc9kh_EMYb7eTTgJk2r-5" edge="1">
          <mxGeometry width="50" height="50" relative="1" as="geometry">
            <mxPoint x="643" y="531.47" as="sourcePoint" />
            <mxPoint x="723" y="532" as="targetPoint" />
          </mxGeometry>
        </mxCell>
        <mxCell id="9Uc9kh_EMYb7eTTgJk2r-21" value="" style="endArrow=none;html=1;rounded=0;" parent="1" edge="1">
          <mxGeometry width="50" height="50" relative="1" as="geometry">
            <mxPoint x="579.47" y="800" as="sourcePoint" />
            <mxPoint x="579.47" y="740" as="targetPoint" />
          </mxGeometry>
        </mxCell>
        <mxCell id="9Uc9kh_EMYb7eTTgJk2r-22" value="" style="endArrow=none;html=1;rounded=0;" parent="1" edge="1">
          <mxGeometry width="50" height="50" relative="1" as="geometry">
            <mxPoint x="579.47" y="940" as="sourcePoint" />
            <mxPoint x="579.47" y="880" as="targetPoint" />
          </mxGeometry>
        </mxCell>
        <mxCell id="9Uc9kh_EMYb7eTTgJk2r-23" value="appartenenza" style="rhombus;whiteSpace=wrap;html=1;fontSize=10;" parent="1" vertex="1">
          <mxGeometry x="220" y="800" width="80" height="80" as="geometry" />
        </mxCell>
        <mxCell id="9Uc9kh_EMYb7eTTgJk2r-24" value="" style="endArrow=none;html=1;rounded=0;" parent="1" edge="1">
          <mxGeometry width="50" height="50" relative="1" as="geometry">
            <mxPoint x="259.47" y="800" as="sourcePoint" />
            <mxPoint x="259.47" y="740" as="targetPoint" />
          </mxGeometry>
        </mxCell>
        <mxCell id="9Uc9kh_EMYb7eTTgJk2r-25" value="" style="endArrow=none;html=1;rounded=0;" parent="1" edge="1">
          <mxGeometry width="50" height="50" relative="1" as="geometry">
            <mxPoint x="259.47" y="940" as="sourcePoint" />
            <mxPoint x="259.47" y="880" as="targetPoint" />
          </mxGeometry>
        </mxCell>
        <mxCell id="9Uc9kh_EMYb7eTTgJk2r-26" value="0,1" style="text;html=1;align=center;verticalAlign=middle;whiteSpace=wrap;rounded=0;" parent="1" vertex="1">
          <mxGeometry x="248" y="740" width="60" height="30" as="geometry" />
        </mxCell>
        <mxCell id="9Uc9kh_EMYb7eTTgJk2r-27" value="1,n" style="text;html=1;align=center;verticalAlign=middle;whiteSpace=wrap;rounded=0;" parent="1" vertex="1">
          <mxGeometry x="246" y="915" width="60" height="30" as="geometry" />
        </mxCell>
        <mxCell id="9Uc9kh_EMYb7eTTgJk2r-28" value="1,n" style="text;html=1;align=center;verticalAlign=middle;whiteSpace=wrap;rounded=0;" parent="1" vertex="1">
          <mxGeometry x="370" y="361" width="60" height="30" as="geometry" />
        </mxCell>
        <mxCell id="9Uc9kh_EMYb7eTTgJk2r-29" value="1,n" style="text;html=1;align=center;verticalAlign=middle;whiteSpace=wrap;rounded=0;" parent="1" vertex="1">
          <mxGeometry x="373" y="147" width="60" height="30" as="geometry" />
        </mxCell>
        <mxCell id="9Uc9kh_EMYb7eTTgJk2r-30" value="0,1" style="text;html=1;align=center;verticalAlign=middle;whiteSpace=wrap;rounded=0;" parent="1" vertex="1">
          <mxGeometry x="469" y="433" width="60" height="30" as="geometry" />
        </mxCell>
        <mxCell id="9Uc9kh_EMYb7eTTgJk2r-32" value="1,1" style="text;html=1;align=center;verticalAlign=middle;whiteSpace=wrap;rounded=0;" parent="1" vertex="1">
          <mxGeometry x="625" y="503" width="60" height="30" as="geometry" />
        </mxCell>
        <mxCell id="9Uc9kh_EMYb7eTTgJk2r-33" value="1,1" style="text;html=1;align=center;verticalAlign=middle;whiteSpace=wrap;rounded=0;" parent="1" vertex="1">
          <mxGeometry x="564" y="740" width="60" height="30" as="geometry" />
        </mxCell>
        <mxCell id="9Uc9kh_EMYb7eTTgJk2r-34" value="1,n" style="text;html=1;align=center;verticalAlign=middle;whiteSpace=wrap;rounded=0;" parent="1" vertex="1">
          <mxGeometry x="565" y="915" width="60" height="30" as="geometry" />
        </mxCell>
        <mxCell id="9Uc9kh_EMYb7eTTgJk2r-35" value="ruolo" style="text;html=1;align=center;verticalAlign=middle;whiteSpace=wrap;rounded=0;" parent="1" vertex="1">
          <mxGeometry x="290" y="254" width="60" height="30" as="geometry" />
        </mxCell>
        <mxCell id="9Uc9kh_EMYb7eTTgJk2r-36" value="codice_fiscale" style="text;html=1;align=center;verticalAlign=middle;whiteSpace=wrap;rounded=0;" parent="1" vertex="1">
          <mxGeometry x="240" y="60" width="60" height="30" as="geometry" />
        </mxCell>
        <mxCell id="9Uc9kh_EMYb7eTTgJk2r-37" value="nome" style="text;html=1;align=center;verticalAlign=middle;whiteSpace=wrap;rounded=0;" parent="1" vertex="1">
          <mxGeometry x="263" y="80" width="60" height="30" as="geometry" />
        </mxCell>
        <mxCell id="9Uc9kh_EMYb7eTTgJk2r-38" value="cognome" style="text;html=1;align=center;verticalAlign=middle;whiteSpace=wrap;rounded=0;" parent="1" vertex="1">
          <mxGeometry x="254" y="100" width="60" height="30" as="geometry" />
        </mxCell>
        <mxCell id="9Uc9kh_EMYb7eTTgJk2r-39" value="nazione" style="text;html=1;align=center;verticalAlign=middle;whiteSpace=wrap;rounded=0;" parent="1" vertex="1">
          <mxGeometry x="258" y="119" width="60" height="30" as="geometry" />
        </mxCell>
        <mxCell id="9Uc9kh_EMYb7eTTgJk2r-40" value="data_nascita" style="text;html=1;align=center;verticalAlign=middle;whiteSpace=wrap;rounded=0;" parent="1" vertex="1">
          <mxGeometry x="235" y="140" width="80" height="30" as="geometry" />
        </mxCell>
        <mxCell id="9Uc9kh_EMYb7eTTgJk2r-41" value="id_media" style="text;html=1;align=center;verticalAlign=middle;whiteSpace=wrap;rounded=0;" parent="1" vertex="1">
          <mxGeometry x="252" y="323" width="60" height="30" as="geometry" />
        </mxCell>
        <mxCell id="9Uc9kh_EMYb7eTTgJk2r-43" value="titolo" style="text;html=1;align=center;verticalAlign=middle;whiteSpace=wrap;rounded=0;" parent="1" vertex="1">
          <mxGeometry x="264" y="344" width="60" height="30" as="geometry" />
        </mxCell>
        <mxCell id="9Uc9kh_EMYb7eTTgJk2r-44" value="durata" style="text;html=1;align=center;verticalAlign=middle;whiteSpace=wrap;rounded=0;" parent="1" vertex="1">
          <mxGeometry x="261" y="383" width="60" height="30" as="geometry" />
        </mxCell>
        <mxCell id="9Uc9kh_EMYb7eTTgJk2r-45" value="genere" style="text;html=1;align=center;verticalAlign=middle;whiteSpace=wrap;rounded=0;" parent="1" vertex="1">
          <mxGeometry x="260" y="364" width="60" height="30" as="geometry" />
        </mxCell>
        <mxCell id="9Uc9kh_EMYb7eTTgJk2r-46" value="rating_imdb" style="text;html=1;align=center;verticalAlign=middle;whiteSpace=wrap;rounded=0;" parent="1" vertex="1">
          <mxGeometry x="249" y="445" width="60" height="30" as="geometry" />
        </mxCell>
        <mxCell id="9Uc9kh_EMYb7eTTgJk2r-48" value="tipo" style="text;html=1;align=center;verticalAlign=middle;whiteSpace=wrap;rounded=0;" parent="1" vertex="1">
          <mxGeometry x="776" y="570" width="49" height="30" as="geometry" />
        </mxCell>
        <mxCell id="9Uc9kh_EMYb7eTTgJk2r-49" value="data_inizio" style="text;html=1;align=center;verticalAlign=middle;whiteSpace=wrap;rounded=0;" parent="1" vertex="1">
          <mxGeometry x="750" y="597" width="60" height="25" as="geometry" />
        </mxCell>
        <mxCell id="9Uc9kh_EMYb7eTTgJk2r-50" value="data_fine" style="text;html=1;align=center;verticalAlign=middle;whiteSpace=wrap;rounded=0;" parent="1" vertex="1">
          <mxGeometry x="715" y="625" width="60" height="30" as="geometry" />
        </mxCell>
        <mxCell id="9Uc9kh_EMYb7eTTgJk2r-51" value="stagione" style="text;html=1;align=center;verticalAlign=middle;whiteSpace=wrap;rounded=0;" parent="1" vertex="1">
          <mxGeometry x="420" y="683" width="60" height="30" as="geometry" />
        </mxCell>
        <mxCell id="9Uc9kh_EMYb7eTTgJk2r-52" value="numero_stagioni" style="text;html=1;align=center;verticalAlign=middle;whiteSpace=wrap;rounded=0;" parent="1" vertex="1">
          <mxGeometry x="395" y="919" width="60" height="30" as="geometry" />
        </mxCell>
        <mxCell id="9Uc9kh_EMYb7eTTgJk2r-53" value="nome" style="text;html=1;align=center;verticalAlign=middle;whiteSpace=wrap;rounded=0;" parent="1" vertex="1">
          <mxGeometry x="423" y="901" width="60" height="30" as="geometry" />
        </mxCell>
        <mxCell id="9Uc9kh_EMYb7eTTgJk2r-54" value="incassi" style="text;html=1;align=center;verticalAlign=middle;whiteSpace=wrap;rounded=0;" parent="1" vertex="1">
          <mxGeometry x="423" y="971" width="60" height="30" as="geometry" />
        </mxCell>
        <mxCell id="9Uc9kh_EMYb7eTTgJk2r-55" value="premi_emmy" style="text;html=1;align=center;verticalAlign=middle;whiteSpace=wrap;rounded=0;" parent="1" vertex="1">
          <mxGeometry x="408" y="986" width="60" height="30" as="geometry" />
        </mxCell>
        <mxCell id="9Uc9kh_EMYb7eTTgJk2r-56" value="incassi" style="text;html=1;align=center;verticalAlign=middle;whiteSpace=wrap;rounded=0;" parent="1" vertex="1">
          <mxGeometry x="100" y="695" width="60" height="30" as="geometry" />
        </mxCell>
        <mxCell id="9Uc9kh_EMYb7eTTgJk2r-57" value="premi_oscar" style="text;html=1;align=center;verticalAlign=middle;whiteSpace=wrap;rounded=0;" parent="1" vertex="1">
          <mxGeometry x="86" y="715" width="60" height="30" as="geometry" />
        </mxCell>
        <mxCell id="9Uc9kh_EMYb7eTTgJk2r-58" value="data_uscita_streaming" style="text;html=1;align=center;verticalAlign=middle;whiteSpace=wrap;rounded=0;" parent="1" vertex="1">
          <mxGeometry x="60" y="672" width="60" height="30" as="geometry" />
        </mxCell>
        <mxCell id="9Uc9kh_EMYb7eTTgJk2r-60" value="data_rilascio" style="text;html=1;align=center;verticalAlign=middle;whiteSpace=wrap;rounded=0;" parent="1" vertex="1">
          <mxGeometry x="246" y="422" width="60" height="30" as="geometry" />
        </mxCell>
        <mxCell id="9Uc9kh_EMYb7eTTgJk2r-61" value="nome" style="text;html=1;align=center;verticalAlign=middle;whiteSpace=wrap;rounded=0;" parent="1" vertex="1">
          <mxGeometry x="100" y="933" width="60" height="30" as="geometry" />
        </mxCell>
        <mxCell id="9Uc9kh_EMYb7eTTgJk2r-62" value="descrizione" style="text;html=1;align=center;verticalAlign=middle;whiteSpace=wrap;rounded=0;" parent="1" vertex="1">
          <mxGeometry x="86" y="955" width="60" height="30" as="geometry" />
        </mxCell>
        <mxCell id="9Uc9kh_EMYb7eTTgJk2r-63" value="stato_completamento" style="text;html=1;align=center;verticalAlign=middle;whiteSpace=wrap;rounded=0;" parent="1" vertex="1">
          <mxGeometry x="60" y="979" width="60" height="30" as="geometry" />
        </mxCell>
        <mxCell id="9Uc9kh_EMYb7eTTgJk2r-65" value="descrizione" style="text;html=1;align=center;verticalAlign=middle;whiteSpace=wrap;rounded=0;" parent="1" vertex="1">
          <mxGeometry x="410" y="936" width="60" height="30" as="geometry" />
        </mxCell>
        <mxCell id="9Uc9kh_EMYb7eTTgJk2r-66" value="stato_completamento" style="text;html=1;align=center;verticalAlign=middle;whiteSpace=wrap;rounded=0;" parent="1" vertex="1">
          <mxGeometry x="384" y="953" width="60" height="30" as="geometry" />
        </mxCell>
        <mxCell id="9Uc9kh_EMYb7eTTgJk2r-67" value="trama" style="text;html=1;align=center;verticalAlign=middle;whiteSpace=wrap;rounded=0;" parent="1" vertex="1">
          <mxGeometry x="263" y="403" width="60" height="30" as="geometry" />
        </mxCell>
        <mxCell id="9Uc9kh_EMYb7eTTgJk2r-68" value="numero" style="text;html=1;align=center;verticalAlign=middle;whiteSpace=wrap;rounded=0;" parent="1" vertex="1">
          <mxGeometry x="423" y="705" width="60" height="30" as="geometry" />
        </mxCell>
        <mxCell id="9Uc9kh_EMYb7eTTgJk2r-124" value="utente" style="rounded=0;whiteSpace=wrap;html=1;" parent="1" vertex="1">
          <mxGeometry x="681" y="244" width="120" height="60" as="geometry" />
        </mxCell>
        <mxCell id="9Uc9kh_EMYb7eTTgJk2r-127" value="media_visti" style="rhombus;whiteSpace=wrap;html=1;fontSize=10;" parent="1" vertex="1">
          <mxGeometry x="560" y="230" width="80" height="80" as="geometry" />
        </mxCell>
        <mxCell id="9Uc9kh_EMYb7eTTgJk2r-128" value="" style="endArrow=none;html=1;rounded=0;entryX=0.006;entryY=0.436;entryDx=0;entryDy=0;entryPerimeter=0;exitX=1;exitY=0.5;exitDx=0;exitDy=0;" parent="1" source="9Uc9kh_EMYb7eTTgJk2r-127" target="9Uc9kh_EMYb7eTTgJk2r-124" edge="1">
          <mxGeometry width="50" height="50" relative="1" as="geometry">
            <mxPoint x="643" y="269.65999999999997" as="sourcePoint" />
            <mxPoint x="718" y="270.18999999999994" as="targetPoint" />
          </mxGeometry>
        </mxCell>
        <mxCell id="9Uc9kh_EMYb7eTTgJk2r-133" value="data_inserimento" style="text;html=1;align=center;verticalAlign=middle;whiteSpace=wrap;rounded=0;" parent="1" vertex="1">
          <mxGeometry x="604" y="174" width="60" height="30" as="geometry" />
        </mxCell>
        <mxCell id="9Uc9kh_EMYb7eTTgJk2r-134" value="rating_utente" style="text;html=1;align=center;verticalAlign=middle;whiteSpace=wrap;rounded=0;" parent="1" vertex="1">
          <mxGeometry x="631" y="204" width="60" height="30" as="geometry" />
        </mxCell>
        <mxCell id="9Uc9kh_EMYb7eTTgJk2r-135" value="nome_utente" style="text;html=1;align=center;verticalAlign=middle;whiteSpace=wrap;rounded=0;" parent="1" vertex="1">
          <mxGeometry x="640" y="390" width="60" height="30" as="geometry" />
        </mxCell>
        <mxCell id="9Uc9kh_EMYb7eTTgJk2r-136" value="password" style="text;html=1;align=center;verticalAlign=middle;whiteSpace=wrap;rounded=0;" parent="1" vertex="1">
          <mxGeometry x="750" y="344" width="60" height="30" as="geometry" />
        </mxCell>
        <mxCell id="9Uc9kh_EMYb7eTTgJk2r-137" value="email" style="text;html=1;align=center;verticalAlign=middle;whiteSpace=wrap;rounded=0;" parent="1" vertex="1">
          <mxGeometry x="767" y="323" width="60" height="30" as="geometry" />
        </mxCell>
        <mxCell id="9Uc9kh_EMYb7eTTgJk2r-138" value="0,n" style="text;html=1;align=center;verticalAlign=middle;whiteSpace=wrap;rounded=0;" parent="1" vertex="1">
          <mxGeometry x="472" y="383" width="60" height="30" as="geometry" />
        </mxCell>
        <mxCell id="9Uc9kh_EMYb7eTTgJk2r-139" value="0,n" style="text;html=1;align=center;verticalAlign=middle;whiteSpace=wrap;rounded=0;" parent="1" vertex="1">
          <mxGeometry x="631" y="244" width="60" height="30" as="geometry" />
        </mxCell>
        <mxCell id="9Uc9kh_EMYb7eTTgJk2r-143" style="edgeStyle=orthogonalEdgeStyle;rounded=0;orthogonalLoop=1;jettySize=auto;html=1;entryX=1;entryY=0.333;entryDx=0;entryDy=0;entryPerimeter=0;endArrow=none;startFill=0;" parent="1" source="9Uc9kh_EMYb7eTTgJk2r-127" target="9Uc9kh_EMYb7eTTgJk2r-1" edge="1">
          <mxGeometry relative="1" as="geometry">
            <Array as="points">
              <mxPoint x="540" y="270" />
              <mxPoint x="540" y="410" />
            </Array>
          </mxGeometry>
        </mxCell>
        <mxCell id="9Uc9kh_EMYb7eTTgJk2r-144" value="data_registrazione" style="text;html=1;align=center;verticalAlign=middle;whiteSpace=wrap;rounded=0;" parent="1" vertex="1">
          <mxGeometry x="724" y="370" width="60" height="30" as="geometry" />
        </mxCell>
        <mxCell id="9Uc9kh_EMYb7eTTgJk2r-145" style="edgeStyle=orthogonalEdgeStyle;rounded=0;orthogonalLoop=1;jettySize=auto;html=1;exitX=0;exitY=0.75;exitDx=0;exitDy=0;endArrow=oval;endFill=1;" parent="1" edge="1">
          <mxGeometry relative="1" as="geometry">
            <mxPoint x="160" y="947.7933333333335" as="targetPoint" />
            <mxPoint x="200" y="947.71" as="sourcePoint" />
            <Array as="points">
              <mxPoint x="180" y="948.71" />
            </Array>
          </mxGeometry>
        </mxCell>
        <mxCell id="9Uc9kh_EMYb7eTTgJk2r-146" style="edgeStyle=orthogonalEdgeStyle;rounded=0;orthogonalLoop=1;jettySize=auto;html=1;exitX=0;exitY=0.75;exitDx=0;exitDy=0;endArrow=oval;endFill=0;" parent="1" edge="1">
          <mxGeometry relative="1" as="geometry">
            <mxPoint x="160" y="708.8233333333335" as="targetPoint" />
            <mxPoint x="200" y="708.74" as="sourcePoint" />
            <Array as="points">
              <mxPoint x="180" y="709.74" />
            </Array>
          </mxGeometry>
        </mxCell>
        <mxCell id="9Uc9kh_EMYb7eTTgJk2r-147" style="edgeStyle=orthogonalEdgeStyle;rounded=0;orthogonalLoop=1;jettySize=auto;html=1;exitX=0;exitY=0.75;exitDx=0;exitDy=0;endArrow=oval;endFill=0;" parent="1" edge="1">
          <mxGeometry relative="1" as="geometry">
            <mxPoint x="160" y="993.7933333333335" as="targetPoint" />
            <mxPoint x="200" y="993.71" as="sourcePoint" />
            <Array as="points">
              <mxPoint x="180" y="994.71" />
            </Array>
          </mxGeometry>
        </mxCell>
        <mxCell id="9Uc9kh_EMYb7eTTgJk2r-148" style="edgeStyle=orthogonalEdgeStyle;rounded=0;orthogonalLoop=1;jettySize=auto;html=1;exitX=0;exitY=0.75;exitDx=0;exitDy=0;endArrow=oval;endFill=0;" parent="1" edge="1">
          <mxGeometry relative="1" as="geometry">
            <mxPoint x="160" y="969.7933333333335" as="targetPoint" />
            <mxPoint x="200" y="969.71" as="sourcePoint" />
            <Array as="points">
              <mxPoint x="180" y="970.71" />
            </Array>
          </mxGeometry>
        </mxCell>
        <mxCell id="9Uc9kh_EMYb7eTTgJk2r-149" style="edgeStyle=orthogonalEdgeStyle;rounded=0;orthogonalLoop=1;jettySize=auto;html=1;exitX=0;exitY=0.75;exitDx=0;exitDy=0;endArrow=oval;endFill=0;" parent="1" edge="1">
          <mxGeometry relative="1" as="geometry">
            <mxPoint x="160" y="688.7933333333335" as="targetPoint" />
            <mxPoint x="200" y="688.71" as="sourcePoint" />
            <Array as="points">
              <mxPoint x="180" y="689.71" />
            </Array>
          </mxGeometry>
        </mxCell>
        <mxCell id="9Uc9kh_EMYb7eTTgJk2r-152" style="edgeStyle=orthogonalEdgeStyle;rounded=0;orthogonalLoop=1;jettySize=auto;html=1;exitX=0;exitY=0.75;exitDx=0;exitDy=0;endArrow=oval;endFill=0;" parent="1" edge="1">
          <mxGeometry relative="1" as="geometry">
            <mxPoint x="160" y="729.7933333333335" as="targetPoint" />
            <mxPoint x="200" y="729.71" as="sourcePoint" />
            <Array as="points">
              <mxPoint x="180" y="730.71" />
            </Array>
          </mxGeometry>
        </mxCell>
        <mxCell id="9Uc9kh_EMYb7eTTgJk2r-156" style="rounded=0;orthogonalLoop=1;jettySize=auto;html=1;exitX=0;exitY=0.75;exitDx=0;exitDy=0;endArrow=oval;endFill=1;" parent="1" edge="1">
          <mxGeometry relative="1" as="geometry">
            <mxPoint x="320" y="340" as="targetPoint" />
            <mxPoint x="360" y="390.13" as="sourcePoint" />
          </mxGeometry>
        </mxCell>
        <mxCell id="9Uc9kh_EMYb7eTTgJk2r-157" style="rounded=0;orthogonalLoop=1;jettySize=auto;html=1;exitX=0;exitY=0.75;exitDx=0;exitDy=0;endArrow=oval;endFill=0;" parent="1" edge="1">
          <mxGeometry relative="1" as="geometry">
            <mxPoint x="320" y="380" as="targetPoint" />
            <mxPoint x="360" y="407" as="sourcePoint" />
          </mxGeometry>
        </mxCell>
        <mxCell id="9Uc9kh_EMYb7eTTgJk2r-158" style="rounded=0;orthogonalLoop=1;jettySize=auto;html=1;exitX=0;exitY=0.25;exitDx=0;exitDy=0;endArrow=oval;endFill=0;" parent="1" edge="1">
          <mxGeometry relative="1" as="geometry">
            <mxPoint x="320" y="360" as="targetPoint" />
            <mxPoint x="360" y="401" as="sourcePoint" />
          </mxGeometry>
        </mxCell>
        <mxCell id="9Uc9kh_EMYb7eTTgJk2r-160" style="rounded=0;orthogonalLoop=1;jettySize=auto;html=1;exitX=0;exitY=0.75;exitDx=0;exitDy=0;endArrow=oval;endFill=0;" parent="1" edge="1">
          <mxGeometry relative="1" as="geometry">
            <mxPoint x="320" y="419.0833333333335" as="targetPoint" />
            <mxPoint x="360" y="419" as="sourcePoint" />
          </mxGeometry>
        </mxCell>
        <mxCell id="9Uc9kh_EMYb7eTTgJk2r-161" style="rounded=0;orthogonalLoop=1;jettySize=auto;html=1;exitX=0;exitY=0.75;exitDx=0;exitDy=0;endArrow=oval;endFill=0;" parent="1" edge="1">
          <mxGeometry relative="1" as="geometry">
            <mxPoint x="320" y="400" as="targetPoint" />
            <mxPoint x="360" y="411" as="sourcePoint" />
          </mxGeometry>
        </mxCell>
        <mxCell id="9Uc9kh_EMYb7eTTgJk2r-162" style="rounded=0;orthogonalLoop=1;jettySize=auto;html=1;exitX=0;exitY=0.75;exitDx=0;exitDy=0;endArrow=oval;endFill=0;" parent="1" source="9Uc9kh_EMYb7eTTgJk2r-1" edge="1">
          <mxGeometry relative="1" as="geometry">
            <mxPoint x="321" y="436.0833333333335" as="targetPoint" />
            <mxPoint x="361" y="436" as="sourcePoint" />
          </mxGeometry>
        </mxCell>
        <mxCell id="9Uc9kh_EMYb7eTTgJk2r-163" style="rounded=0;orthogonalLoop=1;jettySize=auto;html=1;exitX=0;exitY=1;exitDx=0;exitDy=0;endArrow=oval;endFill=0;" parent="1" source="9Uc9kh_EMYb7eTTgJk2r-1" edge="1">
          <mxGeometry relative="1" as="geometry">
            <mxPoint x="320" y="458.0833333333335" as="targetPoint" />
            <mxPoint x="360" y="458" as="sourcePoint" />
          </mxGeometry>
        </mxCell>
        <mxCell id="9Uc9kh_EMYb7eTTgJk2r-165" style="rounded=0;orthogonalLoop=1;jettySize=auto;html=1;exitX=0;exitY=0.75;exitDx=0;exitDy=0;endArrow=oval;endFill=0;" parent="1" edge="1">
          <mxGeometry relative="1" as="geometry">
            <mxPoint x="340" y="269.6333333333335" as="targetPoint" />
            <mxPoint x="380" y="269.55" as="sourcePoint" />
          </mxGeometry>
        </mxCell>
        <mxCell id="9Uc9kh_EMYb7eTTgJk2r-168" style="rounded=0;orthogonalLoop=1;jettySize=auto;html=1;exitX=0.002;exitY=0.159;exitDx=0;exitDy=0;endArrow=oval;endFill=1;exitPerimeter=0;" parent="1" source="9Uc9kh_EMYb7eTTgJk2r-4" edge="1">
          <mxGeometry relative="1" as="geometry">
            <mxPoint x="320" y="76.92000000000002" as="targetPoint" />
            <mxPoint x="360" y="103.92000000000002" as="sourcePoint" />
          </mxGeometry>
        </mxCell>
        <mxCell id="9Uc9kh_EMYb7eTTgJk2r-170" style="rounded=0;orthogonalLoop=1;jettySize=auto;html=1;exitX=0;exitY=0.75;exitDx=0;exitDy=0;endArrow=oval;endFill=0;" parent="1" edge="1">
          <mxGeometry relative="1" as="geometry">
            <mxPoint x="320" y="116.0033333333335" as="targetPoint" />
            <mxPoint x="360" y="115.92000000000002" as="sourcePoint" />
          </mxGeometry>
        </mxCell>
        <mxCell id="9Uc9kh_EMYb7eTTgJk2r-171" style="rounded=0;orthogonalLoop=1;jettySize=auto;html=1;exitX=0;exitY=0.75;exitDx=0;exitDy=0;endArrow=oval;endFill=0;" parent="1" edge="1">
          <mxGeometry relative="1" as="geometry">
            <mxPoint x="320" y="96.92000000000002" as="targetPoint" />
            <mxPoint x="360" y="107.92000000000002" as="sourcePoint" />
          </mxGeometry>
        </mxCell>
        <mxCell id="9Uc9kh_EMYb7eTTgJk2r-172" style="rounded=0;orthogonalLoop=1;jettySize=auto;html=1;exitX=0;exitY=0.75;exitDx=0;exitDy=0;endArrow=oval;endFill=0;" parent="1" edge="1">
          <mxGeometry relative="1" as="geometry">
            <mxPoint x="321" y="133.0033333333335" as="targetPoint" />
            <mxPoint x="360" y="131.92000000000002" as="sourcePoint" />
          </mxGeometry>
        </mxCell>
        <mxCell id="9Uc9kh_EMYb7eTTgJk2r-173" style="rounded=0;orthogonalLoop=1;jettySize=auto;html=1;exitX=0;exitY=1;exitDx=0;exitDy=0;endArrow=oval;endFill=0;" parent="1" edge="1">
          <mxGeometry relative="1" as="geometry">
            <mxPoint x="320" y="155.0033333333335" as="targetPoint" />
            <mxPoint x="360" y="146.92000000000002" as="sourcePoint" />
          </mxGeometry>
        </mxCell>
        <mxCell id="9Uc9kh_EMYb7eTTgJk2r-179" style="rounded=0;orthogonalLoop=1;jettySize=auto;html=1;exitX=0.002;exitY=0.159;exitDx=0;exitDy=0;endArrow=oval;endFill=1;exitPerimeter=0;" parent="1" edge="1">
          <mxGeometry relative="1" as="geometry">
            <mxPoint x="480" y="918" as="targetPoint" />
            <mxPoint x="520" y="949" as="sourcePoint" />
          </mxGeometry>
        </mxCell>
        <mxCell id="9Uc9kh_EMYb7eTTgJk2r-180" style="rounded=0;orthogonalLoop=1;jettySize=auto;html=1;exitX=0;exitY=0.75;exitDx=0;exitDy=0;endArrow=oval;endFill=0;" parent="1" edge="1">
          <mxGeometry relative="1" as="geometry">
            <mxPoint x="480" y="969.0033333333336" as="targetPoint" />
            <mxPoint x="520" y="968.9200000000001" as="sourcePoint" />
          </mxGeometry>
        </mxCell>
        <mxCell id="9Uc9kh_EMYb7eTTgJk2r-181" style="rounded=0;orthogonalLoop=1;jettySize=auto;html=1;exitX=0;exitY=0.75;exitDx=0;exitDy=0;endArrow=oval;endFill=0;" parent="1" edge="1">
          <mxGeometry relative="1" as="geometry">
            <mxPoint x="480" y="938" as="targetPoint" />
            <mxPoint x="520" y="955.9200000000001" as="sourcePoint" />
          </mxGeometry>
        </mxCell>
        <mxCell id="9Uc9kh_EMYb7eTTgJk2r-182" style="rounded=0;orthogonalLoop=1;jettySize=auto;html=1;exitX=0;exitY=0.5;exitDx=0;exitDy=0;endArrow=oval;endFill=0;" parent="1" edge="1">
          <mxGeometry relative="1" as="geometry">
            <mxPoint x="481" y="986.0033333333336" as="targetPoint" />
            <mxPoint x="520" y="978" as="sourcePoint" />
          </mxGeometry>
        </mxCell>
        <mxCell id="9Uc9kh_EMYb7eTTgJk2r-183" style="rounded=0;orthogonalLoop=1;jettySize=auto;html=1;exitX=0.005;exitY=0.623;exitDx=0;exitDy=0;endArrow=oval;endFill=0;exitPerimeter=0;" parent="1" edge="1">
          <mxGeometry relative="1" as="geometry">
            <mxPoint x="480" y="1001.0833333333335" as="targetPoint" />
            <mxPoint x="520.6000000000001" y="985.3800000000001" as="sourcePoint" />
          </mxGeometry>
        </mxCell>
        <mxCell id="9Uc9kh_EMYb7eTTgJk2r-184" style="rounded=0;orthogonalLoop=1;jettySize=auto;html=1;exitX=0;exitY=0.25;exitDx=0;exitDy=0;endArrow=oval;endFill=0;" parent="1" edge="1">
          <mxGeometry relative="1" as="geometry">
            <mxPoint x="480" y="952" as="targetPoint" />
            <mxPoint x="520" y="963" as="sourcePoint" />
          </mxGeometry>
        </mxCell>
        <mxCell id="9Uc9kh_EMYb7eTTgJk2r-187" style="edgeStyle=orthogonalEdgeStyle;rounded=0;orthogonalLoop=1;jettySize=auto;html=1;exitX=0;exitY=0.75;exitDx=0;exitDy=0;endArrow=oval;endFill=0;" parent="1" edge="1">
          <mxGeometry relative="1" as="geometry">
            <mxPoint x="480" y="698.8933333333334" as="targetPoint" />
            <mxPoint x="520" y="698.81" as="sourcePoint" />
            <Array as="points">
              <mxPoint x="500" y="699.81" />
            </Array>
          </mxGeometry>
        </mxCell>
        <mxCell id="9Uc9kh_EMYb7eTTgJk2r-188" style="edgeStyle=orthogonalEdgeStyle;rounded=0;orthogonalLoop=1;jettySize=auto;html=1;exitX=0;exitY=0.75;exitDx=0;exitDy=0;endArrow=oval;endFill=0;" parent="1" edge="1">
          <mxGeometry relative="1" as="geometry">
            <mxPoint x="480" y="720.8933333333334" as="targetPoint" />
            <mxPoint x="520" y="720.81" as="sourcePoint" />
            <Array as="points">
              <mxPoint x="500" y="721.81" />
            </Array>
          </mxGeometry>
        </mxCell>
        <mxCell id="9Uc9kh_EMYb7eTTgJk2r-189" style="rounded=0;orthogonalLoop=1;jettySize=auto;html=1;endArrow=oval;endFill=0;" parent="1" edge="1">
          <mxGeometry relative="1" as="geometry">
            <mxPoint x="580" y="190" as="targetPoint" />
            <mxPoint x="580" y="250" as="sourcePoint" />
          </mxGeometry>
        </mxCell>
        <mxCell id="9Uc9kh_EMYb7eTTgJk2r-190" style="rounded=0;orthogonalLoop=1;jettySize=auto;html=1;endArrow=oval;endFill=0;" parent="1" edge="1">
          <mxGeometry relative="1" as="geometry">
            <mxPoint x="620" y="220" as="targetPoint" />
            <mxPoint x="620" y="250" as="sourcePoint" />
          </mxGeometry>
        </mxCell>
        <mxCell id="9Uc9kh_EMYb7eTTgJk2r-196" style="rounded=0;orthogonalLoop=1;jettySize=auto;html=1;endArrow=oval;endFill=1;entryX=0;entryY=0.75;entryDx=0;entryDy=0;" parent="1" edge="1">
          <mxGeometry relative="1" as="geometry">
            <mxPoint x="670" y="513.2499999999999" as="targetPoint" />
            <mxPoint x="670" y="548.75" as="sourcePoint" />
          </mxGeometry>
        </mxCell>
        <mxCell id="9Uc9kh_EMYb7eTTgJk2r-197" style="rounded=0;orthogonalLoop=1;jettySize=auto;html=1;exitX=0.57;exitY=0.991;exitDx=0;exitDy=0;endArrow=oval;endFill=0;exitPerimeter=0;" parent="1" source="9Uc9kh_EMYb7eTTgJk2r-5" edge="1">
          <mxGeometry relative="1" as="geometry">
            <mxPoint x="785.5" y="584" as="targetPoint" />
            <mxPoint x="745.5" y="584.0833333333335" as="sourcePoint" />
          </mxGeometry>
        </mxCell>
        <mxCell id="9Uc9kh_EMYb7eTTgJk2r-198" style="rounded=0;orthogonalLoop=1;jettySize=auto;html=1;exitX=0.5;exitY=1;exitDx=0;exitDy=0;endArrow=oval;endFill=0;" parent="1" source="9Uc9kh_EMYb7eTTgJk2r-5" edge="1">
          <mxGeometry relative="1" as="geometry">
            <mxPoint x="751" y="600" as="targetPoint" />
            <mxPoint x="686.5" y="602.9200000000001" as="sourcePoint" />
          </mxGeometry>
        </mxCell>
        <mxCell id="9Uc9kh_EMYb7eTTgJk2r-199" style="rounded=0;orthogonalLoop=1;jettySize=auto;html=1;exitX=0.439;exitY=1.012;exitDx=0;exitDy=0;endArrow=oval;endFill=0;exitPerimeter=0;" parent="1" source="9Uc9kh_EMYb7eTTgJk2r-5" edge="1">
          <mxGeometry relative="1" as="geometry">
            <mxPoint x="720" y="630" as="targetPoint" />
            <mxPoint x="680" y="584.5000000000001" as="sourcePoint" />
          </mxGeometry>
        </mxCell>
        <mxCell id="9Uc9kh_EMYb7eTTgJk2r-234" style="rounded=0;orthogonalLoop=1;jettySize=auto;html=1;exitX=0.606;exitY=1.006;exitDx=0;exitDy=0;endArrow=oval;endFill=0;exitPerimeter=0;" parent="1" source="9Uc9kh_EMYb7eTTgJk2r-124" edge="1">
          <mxGeometry relative="1" as="geometry">
            <mxPoint x="785.5" y="329.5" as="targetPoint" />
            <mxPoint x="748" y="304.5" as="sourcePoint" />
          </mxGeometry>
        </mxCell>
        <mxCell id="9Uc9kh_EMYb7eTTgJk2r-235" style="rounded=0;orthogonalLoop=1;jettySize=auto;html=1;exitX=0.5;exitY=1;exitDx=0;exitDy=0;endArrow=oval;endFill=0;entryX=0.004;entryY=0.121;entryDx=0;entryDy=0;entryPerimeter=0;" parent="1" target="9Uc9kh_EMYb7eTTgJk2r-136" edge="1">
          <mxGeometry relative="1" as="geometry">
            <mxPoint x="751" y="343.5" as="targetPoint" />
            <mxPoint x="740" y="303.5" as="sourcePoint" />
          </mxGeometry>
        </mxCell>
        <mxCell id="9Uc9kh_EMYb7eTTgJk2r-236" style="rounded=0;orthogonalLoop=1;jettySize=auto;html=1;exitX=0.439;exitY=1.012;exitDx=0;exitDy=0;endArrow=oval;endFill=0;exitPerimeter=0;" parent="1" edge="1">
          <mxGeometry relative="1" as="geometry">
            <mxPoint x="720" y="373.5" as="targetPoint" />
            <mxPoint x="733" y="304.5" as="sourcePoint" />
          </mxGeometry>
        </mxCell>
        <mxCell id="9Uc9kh_EMYb7eTTgJk2r-237" style="rounded=0;orthogonalLoop=1;jettySize=auto;html=1;exitX=0.384;exitY=1.002;exitDx=0;exitDy=0;endArrow=oval;endFill=1;exitPerimeter=0;entryX=0.5;entryY=0;entryDx=0;entryDy=0;" parent="1" target="9Uc9kh_EMYb7eTTgJk2r-135" edge="1">
          <mxGeometry relative="1" as="geometry">
            <mxPoint x="681" y="385.5" as="targetPoint" />
            <mxPoint x="726" y="303.5" as="sourcePoint" />
          </mxGeometry>
        </mxCell>
        <mxCell id="naHJY3Ibe_9b8TmvcOFO-3" style="edgeStyle=orthogonalEdgeStyle;rounded=0;orthogonalLoop=1;jettySize=auto;html=1;entryX=0.25;entryY=1;entryDx=0;entryDy=0;endArrow=none;startFill=0;" parent="1" source="naHJY3Ibe_9b8TmvcOFO-1" target="9Uc9kh_EMYb7eTTgJk2r-1" edge="1">
          <mxGeometry relative="1" as="geometry">
            <Array as="points">
              <mxPoint x="360" y="492" />
              <mxPoint x="400" y="492" />
              <mxPoint x="400" y="450" />
            </Array>
          </mxGeometry>
        </mxCell>
        <mxCell id="naHJY3Ibe_9b8TmvcOFO-6" style="edgeStyle=orthogonalEdgeStyle;rounded=0;orthogonalLoop=1;jettySize=auto;html=1;endArrow=none;startFill=0;" parent="1" source="naHJY3Ibe_9b8TmvcOFO-1" target="9Uc9kh_EMYb7eTTgJk2r-2" edge="1">
          <mxGeometry relative="1" as="geometry" />
        </mxCell>
        <mxCell id="naHJY3Ibe_9b8TmvcOFO-1" value="is_film" style="rhombus;whiteSpace=wrap;html=1;" parent="1" vertex="1">
          <mxGeometry x="320" y="533" width="80" height="80" as="geometry" />
        </mxCell>
        <mxCell id="naHJY3Ibe_9b8TmvcOFO-4" style="edgeStyle=orthogonalEdgeStyle;rounded=0;orthogonalLoop=1;jettySize=auto;html=1;entryX=0.75;entryY=1;entryDx=0;entryDy=0;endArrow=none;startFill=0;" parent="1" source="naHJY3Ibe_9b8TmvcOFO-2" target="9Uc9kh_EMYb7eTTgJk2r-1" edge="1">
          <mxGeometry relative="1" as="geometry">
            <Array as="points">
              <mxPoint x="480" y="492" />
              <mxPoint x="440" y="492" />
              <mxPoint x="440" y="450" />
            </Array>
          </mxGeometry>
        </mxCell>
        <mxCell id="naHJY3Ibe_9b8TmvcOFO-5" style="edgeStyle=orthogonalEdgeStyle;rounded=0;orthogonalLoop=1;jettySize=auto;html=1;endArrow=none;startFill=0;" parent="1" source="naHJY3Ibe_9b8TmvcOFO-2" target="9Uc9kh_EMYb7eTTgJk2r-3" edge="1">
          <mxGeometry relative="1" as="geometry" />
        </mxCell>
        <mxCell id="naHJY3Ibe_9b8TmvcOFO-2" value="is_episodio" style="rhombus;whiteSpace=wrap;html=1;" parent="1" vertex="1">
          <mxGeometry x="440" y="534" width="80" height="80" as="geometry" />
        </mxCell>
        <mxCell id="naHJY3Ibe_9b8TmvcOFO-7" value="0,1" style="text;html=1;align=center;verticalAlign=middle;whiteSpace=wrap;rounded=0;" parent="1" vertex="1">
          <mxGeometry x="348" y="489" width="60" height="30" as="geometry" />
        </mxCell>
        <mxCell id="naHJY3Ibe_9b8TmvcOFO-8" value="0,1" style="text;html=1;align=center;verticalAlign=middle;whiteSpace=wrap;rounded=0;" parent="1" vertex="1">
          <mxGeometry x="423" y="489" width="60" height="30" as="geometry" />
        </mxCell>
        <mxCell id="naHJY3Ibe_9b8TmvcOFO-9" value="1,1" style="text;html=1;align=center;verticalAlign=middle;whiteSpace=wrap;rounded=0;" parent="1" vertex="1">
          <mxGeometry x="250" y="653" width="60" height="30" as="geometry" />
        </mxCell>
        <mxCell id="naHJY3Ibe_9b8TmvcOFO-10" value="1,1" style="text;html=1;align=center;verticalAlign=middle;whiteSpace=wrap;rounded=0;" parent="1" vertex="1">
          <mxGeometry x="530" y="654" width="60" height="30" as="geometry" />
        </mxCell>
        <mxCell id="naHJY3Ibe_9b8TmvcOFO-11" style="rounded=0;orthogonalLoop=1;jettySize=auto;html=1;endArrow=oval;endFill=1;entryX=0;entryY=0.75;entryDx=0;entryDy=0;" parent="1" edge="1">
          <mxGeometry relative="1" as="geometry">
            <mxPoint x="320.17" y="630" as="targetPoint" />
            <mxPoint x="320.17" y="665.5000000000001" as="sourcePoint" />
          </mxGeometry>
        </mxCell>
        <mxCell id="naHJY3Ibe_9b8TmvcOFO-12" style="rounded=0;orthogonalLoop=1;jettySize=auto;html=1;endArrow=oval;endFill=1;entryX=0;entryY=0.75;entryDx=0;entryDy=0;" parent="1" edge="1">
          <mxGeometry relative="1" as="geometry">
            <mxPoint x="519.17" y="629" as="targetPoint" />
            <mxPoint x="519.17" y="664.5000000000001" as="sourcePoint" />
          </mxGeometry>
        </mxCell>
      </root>
    </mxGraphModel>
  </diagram>
</mxfile>
